<?xml version="1.0"?>
<svg xmlns="http://www.w3.org/2000/svg" id="Layer_2" data-name="Layer 2" width="512" height="512" viewBox="0 0 24 24"><path d="M19,16.373V3.627A2.63,2.63,0,0,0,16.373,1H3.627A2.63,2.63,0,0,0,1,3.627V16.373A2.63,2.63,0,0,0,3.627,19H16.373A2.63,2.63,0,0,0,19,16.373Zm-16,0V3.627A.627.627,0,0,1,3.627,3H16.373A.627.627,0,0,1,17,3.627V16.373a.627.627,0,0,1-.627.627H3.627A.627.627,0,0,1,3,16.373Z"/><path d="M22,5a1,1,0,0,0-1,1V18.771A2.232,2.232,0,0,1,18.771,21H6a1,1,0,0,0,0,2H18.771A4.233,4.233,0,0,0,23,18.771V6A1,1,0,0,0,22,5Z"/></svg>
