<svg height="512pt" viewBox="0 -4 512 512" width="512pt" xmlns="http://www.w3.org/2000/svg"><path d="m437.253906 496.488281c-.871094 0-1.761718-.152343-2.625-.476562-3.878906-1.449219-5.851562-5.769531-4.398437-9.648438 16.304687-43.648437 8.414062-128.144531-5.183594-158.078125-1.714844-3.773437-.046875-8.21875 3.726563-9.933594 3.769531-1.710937 8.214843-.042968 9.929687 3.726563 14.933594 32.871094 23.375 121.902344 5.578125 169.535156-1.128906 3.011719-3.988281 4.875-7.027344 4.875zm0 0" fill="#f6e3a3"/><path d="m0 251.800781c0 28.921875 2.429688 65.109375 15.261719 103.097657 1.921875 5.6875 9.585937 6.640624 12.921875 1.648437 59.441406-88.921875 81.980468-81.539063 119.515625-46.457031 33.144531 30.972656 40.3125 115.726562 22.855469 173.898437-3.640626 12.125 8.191406 23.085938 20.015624 18.574219 109.496094-41.804688 321.429688-182.257812 321.429688-250.761719 0-68.503906-211.933594-208.960937-321.429688-250.765625-11.824218-4.511718-23.65625 6.449219-20.015624 18.574219 17.457031 58.167969 10.289062 142.925781-22.855469 173.898437-37.535157 35.082032-60.074219 42.464844-119.515625-46.457031-3.335938-4.992187-11-4.039062-12.921875 1.648438-12.832031 37.988281-15.261719 74.175781-15.261719 103.101562zm0 0" fill="#fcf2d0"/><path d="m158.820312 179.679688c-3.3125 5.332031-7.015624 9.996093-11.117187 13.828124-37.539063 35.085938-60.074219 42.464844-119.519531-46.457031-3.335938-4.992187-11-4.039062-12.921875 1.648438-12.832031 37.988281-15.261719 74.175781-15.261719 103.101562 0 28.921875 2.429688 65.109375 15.261719 103.097657 1.921875 5.6875 9.585937 6.640624 12.921875 1.648437 59.445312-88.921875 81.980468-81.539063 119.519531-46.457031 33.140625 30.972656 40.308594 115.726562 22.851563 173.898437-3.636719 12.125 8.191406 23.085938 20.015624 18.574219 25.992188-9.925781 57.757813-25.410156 91.089844-44.167969-64.589844-47.167969-115.164062-179.796875-122.839844-278.714843zm0 0" fill="#f6e3a3"/><path d="m87.132812 213.058594c-15.734374-8.535156-34.121093-28.867188-58.949218-66.007813-3.335938-4.992187-11-4.039062-12.921875 1.648438-12.832031 37.988281-15.261719 74.175781-15.261719 103.101562 0 28.921875 2.429688 65.109375 15.261719 103.097657 1.921875 5.6875 9.585937 6.640624 12.921875 1.648437 19.054687-28.5 34.3125-47.09375 47.488281-58.066406-5.199219-25.207031-4.652344-54.128907 11.460937-85.421875zm0 0" fill="#efd176"/><path d="m170.554688 19.609375c17.457031 58.171875 10.289062 142.925781-22.851563 173.898437-1.589844 1.484376-3.148437 2.917969-4.6875 4.296876-4.679687 30.332031-11.335937 64.988281-18.230469 94.019531 7.285156 4.304687 14.746094 10.628906 22.917969 18.265625 20.449219 19.113281 31.007813 58.707031 31.992187 99.894531 38.941407-133.726563 38.707032-317.578125 38.332032-397.394531-9.679688-4.398438-18.882813-8.277344-27.457032-11.550782-11.824218-4.515624-23.652343 6.445313-20.015624 18.570313zm0 0" fill="#4e5660"/><path d="m179.695312 409.984375c6.984376-23.980469 12.703126-49.578125 17.390626-75.890625-20.675782-50.320312-34.535157-106.34375-38.265626-154.414062-3.3125 5.332031-7.015624 9.996093-11.117187 13.828124-1.589844 1.484376-3.148437 2.917969-4.6875 4.296876-4.679687 30.332031-11.335937 64.988281-18.230469 94.019531 7.285156 4.304687 14.746094 10.628906 22.917969 18.265625 20.449219 19.113281 31.007813 58.707031 31.992187 99.894531zm0 0" fill="#383c43"/><path d="m342.558594 82.09375c-14.621094-9.492188-29.417969-18.621094-44.058594-27.210938-59.449219 162.5625-30.640625 341.320313-8.804688 398.945313 19.992188-11.480469 40.421876-24.0625 60.398438-37.257813-57.449219-101.566406-29.027344-244.535156-7.535156-334.476562zm0 0" fill="#4e5660"/><g fill="#fcf2d0"><path d="m6.351562 182.046875c-1.109374 5.519531-2.039062 10.960937-2.8125 16.304687 11.304688 8.035157 24.039063 18.089844 29.949219 24.84375 1.480469 1.695313 3.558594 2.5625 5.648438 2.5625 1.75 0 3.511719-.613281 4.933593-1.855468 3.117188-2.730469 3.433594-7.46875.707032-10.585938-8.652344-9.886718-26.542969-23.175781-38.425782-31.269531zm0 0"/><path d="m44.070312 279.695312c-3.117187-2.726562-7.855468-2.410156-10.582031.707032-5.910156 6.753906-18.644531 16.808594-29.949219 24.839844.773438 5.347656 1.703126 10.785156 2.8125 16.308593 11.882813-8.089843 29.773438-21.382812 38.425782-31.269531 2.726562-3.117188 2.410156-7.855469-.707032-10.585938zm0 0"/><path d="m31.199219 244.300781h-31.1406252c-.0390626 2.546875-.0585938 5.050781-.0585938 7.5 0 2.445313.0195312 4.949219.0585938 7.5h31.1406252c4.144531 0 7.5-3.359375 7.5-7.5 0-4.144531-3.355469-7.5-7.5-7.5zm0 0"/></g><path d="m353.429688 503.503906c-2.050782 0-4.089844-.835937-5.570313-2.476562-2.773437-3.078125-2.53125-7.820313.546875-10.59375 12.492188-11.261719 29.152344-34.5 37.5625-81.257813 5.6875-31.628906 5.164062-61.921875 2.269531-76.683593-.796875-4.066407 1.851563-8.007813 5.914063-8.804688 4.078125-.789062 8.007812 1.855469 8.804687 5.917969 3.261719 16.632812 3.839844 48.507812-2.226562 82.222656-5.054688 28.113281-16.496094 66.503906-42.28125 89.746094-1.433594 1.292969-3.230469 1.929687-5.019531 1.929687zm0 0" fill="#f6e3a3"/><path d="m311.890625 305.257812-37.710937 31.191407c-5.96875 4.9375-15.003907 2.761719-18.074219-4.351563-15.683594-36.375-15.683594-77.609375 0-113.988281 3.070312-7.113281 12.105469-9.285156 18.074219-4.351563l37.710937 31.191407c5.816406 4.8125 9.179687 11.964843 9.179687 19.511719v21.285156c0 7.550781-3.363281 14.703125-9.179687 19.511718zm0 0" fill="#f6e3a3"/><path d="m276.375 304.007812c-2.148438 0-4.285156-.917968-5.769531-2.703124-2.648438-3.183594-2.214844-7.914063.96875-10.5625l9.808593-8.152344c3.183594-2.648438 7.910157-2.214844 10.5625.96875 2.648438 3.183594 2.210938 7.914062-.972656 10.5625l-9.804687 8.15625c-1.402344 1.164062-3.101563 1.730468-4.792969 1.730468zm0 0" fill="#fcf2d0"/><path d="m286.171875 269.355469c-1.691406 0-3.390625-.570313-4.789063-1.734375l-9.808593-8.152344c-3.183594-2.648438-3.617188-7.378906-.96875-10.5625 2.648437-3.183594 7.378906-3.621094 10.5625-.972656l9.804687 8.15625c3.183594 2.644531 3.621094 7.375.972656 10.5625-1.484374 1.78125-3.621093 2.703125-5.773437 2.703125zm0 0" fill="#fcf2d0"/><path d="m378.8125 260.195312c0-9.777343-9.953125-17.703124-22.234375-17.703124-12.277344 0-22.230469 7.925781-22.230469 17.703124 0 9.78125 9.953125 17.707032 22.230469 17.707032 12.28125 0 22.234375-7.925782 22.234375-17.707032zm0 0" fill="#eda1ab"/><path d="m499.328125 260.195312c0-9.777343-9.953125-17.703124-22.234375-17.703124-12.277344 0-22.234375 7.925781-22.234375 17.703124 0 9.78125 9.957031 17.707032 22.234375 17.707032 12.28125 0 22.234375-7.925782 22.234375-17.707032zm0 0" fill="#eda1ab"/><path d="m369.539062 250.035156c-4.144531 0-7.5-3.359375-7.5-7.5v-7.851562c0-4.144532 3.355469-7.5 7.5-7.5 4.140626 0 7.5 3.355468 7.5 7.5v7.851562c0 4.140625-3.359374 7.5-7.5 7.5zm0 0" fill="#4e5660"/><path d="m464.136719 250.035156c-4.140625 0-7.5-3.359375-7.5-7.5v-7.851562c0-4.144532 3.359375-7.5 7.5-7.5 4.144531 0 7.5 3.355468 7.5 7.5v7.851562c0 4.140625-3.355469 7.5-7.5 7.5zm0 0" fill="#4e5660"/><path d="m416.839844 256.0625c-6.949219 0-13.554688-3.007812-18.125-8.253906-2.722656-3.121094-2.398438-7.859375.726562-10.582032 3.121094-2.71875 7.859375-2.394531 10.582032.726563 1.71875 1.976563 4.203124 3.109375 6.816406 3.109375 2.609375 0 5.09375-1.132812 6.8125-3.105469 2.722656-3.125 7.457031-3.449219 10.582031-.730469 3.121094 2.722657 3.449219 7.460938.726563 10.582032-4.566407 5.246094-11.175782 8.253906-18.121094 8.253906zm0 0" fill="#4e5660"/></svg>